<mxfile host="app.diagrams.net" modified="2020-08-21T16:20:47.408Z" agent="5.0 (Windows NT 10.0; Win64; x64) AppleWebKit/537.36 (KHTML, like Gecko) Chrome/84.0.4147.135 Safari/537.36" etag="tYBsLqAzTUozBPtrUVc5" version="13.6.4" type="github">
  <diagram id="xMvs6xqz4LpyDHZISkBT" name="Page-1">
    <mxGraphModel dx="1386" dy="725" grid="1" gridSize="10" guides="1" tooltips="1" connect="1" arrows="1" fold="1" page="1" pageScale="1" pageWidth="827" pageHeight="1169" math="0" shadow="0">
      <root>
        <mxCell id="0" />
        <mxCell id="1" parent="0" />
        <mxCell id="fvJor1zX5kDTSRlEVZyJ-6" value="" style="pointerEvents=1;shadow=0;dashed=0;html=1;strokeColor=none;fillColor=#434445;aspect=fixed;labelPosition=center;verticalLabelPosition=bottom;verticalAlign=top;align=center;outlineConnect=0;shape=mxgraph.vvd.web_browser;" parent="1" vertex="1">
          <mxGeometry x="325" y="737" width="85.21" height="60.5" as="geometry" />
        </mxCell>
        <mxCell id="Xe35pbtWd81RgZkRuC_G-5" value="" style="endArrow=classic;html=1;" parent="1" source="fvJor1zX5kDTSRlEVZyJ-6" edge="1">
          <mxGeometry width="50" height="50" relative="1" as="geometry">
            <mxPoint x="438" y="366" as="sourcePoint" />
            <mxPoint x="368" y="530" as="targetPoint" />
          </mxGeometry>
        </mxCell>
        <mxCell id="fvJor1zX5kDTSRlEVZyJ-2" value="" style="shape=actor;whiteSpace=wrap;html=1;fillColor=#d5e8d4;strokeColor=#82b366;" parent="1" vertex="1">
          <mxGeometry x="312" y="768" width="40" height="60" as="geometry" />
        </mxCell>
        <mxCell id="fvJor1zX5kDTSRlEVZyJ-5" value="&lt;font style=&quot;font-size: 10px&quot;&gt;Chess Centre Member&lt;/font&gt;" style="text;html=1;strokeColor=none;fillColor=none;align=center;verticalAlign=middle;whiteSpace=wrap;rounded=0;dashed=1;fontColor=#0000FF;" parent="1" vertex="1">
          <mxGeometry x="260" y="827" width="134" height="20" as="geometry" />
        </mxCell>
        <mxCell id="fvJor1zX5kDTSRlEVZyJ-7" value="" style="shape=image;verticalLabelPosition=bottom;labelBackgroundColor=#ffffff;verticalAlign=top;aspect=fixed;imageAspect=0;image=data:image/png,iVBORw0KGgoAAAANSUhEUgAABDgAAAQ4CAYAAADsEGyPAAAACXBIWXMAABYlAAAWJQFJUiTwAAAgAElEQVR4nOzdTW4cV56v4eNCzaleAVnzBKRegVgrMBvIHJuecNqqFVC5glZPc1LyOBMoegWmVlAywHnRK2jlCtgI95FbHySVjMiIPP9zngcw3PfiXlw5IpBX/PHEm9/d3d0lAAAAgMj+5O4BAAAA0Rk4AAAAgPAMHAAAAEB4Bg4AAAAgPAMHAAAAEJ6BAwAAAAjPwAEAAACEZ+AAAAAAwjNwAAAAAOEZOAAAAIDwDBwAAABAeAYOAAAAIDwDBwAAABCegQMAAAAIz8ABAAAAhGfgAAAAAMIzcAAAAADhGTgAAACA8AwcAAAAQHgGDgAAACA8AwcAAAAQnoEDAAAACM/AAQAAAIRn4AAAAADCM3AAAAAA4Rk4AAAAgPAMHAAAAEB4Bg4AAAAgPAMHAAAAEJ6BAwAAAAjPwAEAAACEZ+AAAAAAwjNwAAAAAOEZOAAAAIDwDBwAAABAeAYOAAAAIDwDBwAAABCegQMAAAAIz8ABAAAAhGfgAAAAAMIzcAAAAADhGTgAAACA8AwcAAAAQHgGDgAAACA8AwcAAAAQnoEDAAAACM/AAQAAAIRn4AAAAADCM3AAAAAA4Rk4AAAAgPAMHAAAAEB4Bg4AAAAgPAMHAAAAEJ6BAwAAAAjPwAEAAACEZ+AAAAAAwjNwAAAAAOEZOAAAAIDwDBwAAABAeAYOAAAAIDwDBwAAABCegQMAAAAIz8ABAAAAhGfgAAAAAMIzcAAAAADhGTgAAACA8AwcAAAAQHgGDgAAACA8AwcAAAAQnoEDAAAACM/AAQAAAIRn4AAAAADCM3AAAAAA4Rk4AAAAgPAMHAAAAEB4Bg4AAAAgPAMHAAAAEJ6BAwAAAAjPwAEAAACEZ+AAAAAAwjNwAAAAAOEZOAAAAIDwDBwAAABAeAYOAAAAIDwDBwAAABCegQMAAAAIz8ABAAAAhGfgAAAAAMIzcAAAAADhGTgAAACA8AwcAAAAQHgGDgAAACA8AwcAAAAQnoEDAAAACM/AAQAAAIRn4AAAAADCM3AAAAAA4Rk4AAAAgPAMHAAAAEB4Bg4AAAAgPAMHAAAAEJ6BAwAAAAjPwAEAAACEZ+AAAAAAwjNwAAAAAOEZOAAAAIDwDBwAAABAeAYOAAAAIDwDBwAAABCegQMAAAAIz8ABAAAAhGfgAAAAAMIzcAAAAADhGTgAAACA8AwcAAAAQHgGDgAAACA8AwcAAAAQnoEDAAAACM/AAQAAAIRn4AAAAADCM3AAAAAA4Rk4AAAAgPAMHAAAAEB4Bg4AAAAgPAMHAAAAEJ6BAwAAAAjPwAEAAACEZ+AAAAAAwjNwAAAAAOEZOAAAAIDwDBwAAABAeAYOAAAAIDwDBwAAABCegQMAAAAIz8ABAAAAhGfgAAAAAMIzcAAAAADhGTgAAACA8AwcAAAAQHgGDgAAACA8AwcAAAAQnoEDAAAACM/AAQAAAIRn4AAAAADCM3AAAAAA4Rk4AAAAgPAMHAAAAEB4Bg4AAAAgPAMHAAAAEJ6BAwAAAAjPwAEAAACEZ+AAAAAAwjNwAAAAAOEZOAAAAIDwDBwAAABAeAYOAAAAIDwDBwAAABCegQMAAAAIz8ABAAAAhGfgAAAAAMIzcAAAAADhGTgAAACA8AwcAAAAQHgGDgAAACA8AwcAAAAQnoEDAAAACM/AAQAAAIRn4AAAAADCM3AAAAAA4Rk4AAAAgPAMHAAAAEB4Bg4AAAAgPAMHAAAAEJ6BAwAAAAjPwAEAAACEZ+AAAAAAwvuzWwhQrsVqc/rJH+5FSunZjn/YDyml9x//F+uL+bXbDABAzb67u7tzgwEOZLHaPMvDxcfx4jT/+/lIf6Jf8/hx/ckI8n59Mf/gGQAAIDIDB8CE8omMF3nI6P59XMj1/y2PHdd58HDiAwCAUAwcACNarDbdiHGWB42Xwa71uzx4XK0v5u93+D8PAAAHY+AA2LPFanOWR43un6NKru+2Gzry2HFVwJ8HAAA+Y+AA2INKR42HGDsAACiOgQOgp8Vqc5JSepVSOm9g1HhIN3a8TSm9WV/Mb8v8IwIA0AIDB8ATLVab8zxqRGtqjK1rdrxdX8zf1v2fCQBAiQwcADvIX+d6nk9slPLNJ6XqvpHlTR47fP0sAACTMHAAPCIPG6/yP62+htLXNg8dbwwdAACMzcABcA/Dxl4ZOgAAGJ2BA+ALi9WmGzVeGzb2rhs6Xq8v5m8q++8CAKAABg6AbLHanOZvBNHYGFfX6DhfX8yva/6PBABgWgYOoHn56167UwXft34tJvZz9wqQr5cFAGAf/uQqAi3Lr6O8N24cRHfN3+d7AAAAgzjBATRpsdq8yK+jPPcEFOHX/NrK+9YvBAAA/TjBATQnnxj4p3GjKN29+KfTHAAA9OUEB9CM/NWvVymll+560d6llM58pSwAAE/hBAfQhPwNKbfGjRC6e3Sb7xkAAOzEwAFUb7HavE4p/ZJSOnK3w+ju1S/53gEAwDd5RQWoVn4l5a1vSAnv5xwg9coKAAAPMnAAVVqsNie5tyEkWodfc5fjtvULAQDA/QwcQHXyV8BeeyWlOtuU0qmvkgUA4D4aHEBVFqvNuXGjWt09vc73GAAAPuMEB1CN/IPv393RJvy4vpi/bf0iAADw/5zgAKpg3GjO353kAADgUwYOIDzjRrOMHAAA/MHAAYRm3GiekQMAgN8ZOICwjBtkRg4AAAwcQEzGDb5g5AAAaJxvUQHCWaw2pymlX9w57vHX9cX82oUBAGiPExxAKIvV5kVK6cpd4wFX+RkBAKAxTnAAYSxWm2cppduU0pG7xiO2KaWT9cX8g4sEANAOJziASK6NG+zgKD8rAAA0xMABhLBYbd6mlJ67W+zoeX5mAABohIEDKF7+dowf3Cme6AffrAIA0A4NDqBoORj5T3eJAf59fTF/7wICANTNCQ6gWDkq6htTGOoqP0sAAFTMwAGU7E1K6dgdYqDj/CwBAFAxr6gARVqsNmcppX+4O+zRf6wv5k4EAQBUysABFCe/TnDrK2HZs21K6WR9Mf/gwgIA1McrKkCJ3ho3GMFRfrYAAKiQgQMoSn415Xt3hZF8n58xAAAq4xUVoBj51ZT3wqKM7LeU0guvqgAA1MUJDqAkr4wbTOA4P2sAAFTECQ6gCIvV5iSl9C93gwn9ZX0xv3XBAQDq4AQHUIo37gQT88wBAFTECQ7g4BarzWlK6Rd3ggP46/pifu3CAwDE5wQHUILX7gIH4tkDAKiEgQM4qHx646W7wIG8zM8gAADBGTiAQ/MbdA7NMwgAUAEDB3AwTm9QCKc4AAAqYOAADslvzimFZxEAIDgDB3AQTm9QGKc4AACCM3AAh3LuylMYzyQAQGDf3d3duX/ApBarzUlK6V+uOgX6y/pifuvGAADE4wQHcAh+U06pPJsAAEEZOIBD8EMkpfJsAgAEZeAAJrVYbc5SSseuOoU6zs8oAADBGDiAqfnhkdJ5RgEAAhIZBSazWG2epZT+xxUngH9bX8w/uFEAAHE4wQFMyW/GicKzCgAQjIEDmJIfGonCswoAEIxXVIBJeD2FgLymAgAQiBMcwFROXWmC8cwCAARi4ACm4sg/0XhmAQACMXAAU/HbcKLxzAIABGLgAEa3WG1epJSOXWmCOc7PLgAAARg4gCn4TThReXYBAIIwcABT8EMiUXl2AQCCMHAAU/BDIlF5dgEAgjBwAKNarDYnKaUjV5mgjvIzDABA4QwcwNhEGonOMwwAEICBAxibHw6JzjMMABCAgQMYm4YB0XmGAQACMHAAY9MvIDrPMABAAAYOYGzHrjDBeYYBAAIwcACjWaw2jvZTBc8yAED5DBzAmJ65ulTCswwAUDgDBzAm3z5BLTzLAACFM3AAAAAA4Rk4gDHpFlALzzIAQOEMHAAAAEB4Bg5gTMKM1MKzDABQOAMHMKbnri6V8CwDABTOwAEAAACEZ+AAAAAAwjNwAAAAAOEZOAAAAIDwDBwAAABAeAYOAAAAIDwDBwAAABCegQMAAAAIz8ABAAAAhGfgAAAAAMIzcAAAAADhGTgAAACA8AwcwJh+c3WphGcZAKBwBg5gTLeuLpXwLAMAFM7AAQAAAIRn4ADG9N7VpRKeZQCAwhk4gDF9cHWphGcZAKBwBg5gTLoF1MIJDgCAwhk4gDEZOKiFExwAAIUzcABj8ltvauFZBgAonIEDGM36Yt791nvrChPcNj/LAAAUzMABjM1vvonOMwwAEICBAxibHw6JzjMMABCAgQMYmx8Oic4zDAAQgIEDGJsfDonOMwwAEMB3d3d37hMwqsVq0wUaj1xlAuoCo8/cOACA8jnBAUzh2lUmKM8uAEAQBg5gCn5IJCrPLgBAEAYOYAp+SCQqzy4AQBAaHMAkdDgISH8DACAQJziAqfhNONF4ZgEAAjFwAFO5cqUJxjMLABCIgQOYih8WicYzCwAQiIEDmMT6Yt41ON652gTxLj+zAAAEYeAApuQ34kThWQUACMbAAUzpratNEJ5VAIBgDBzAZPKR/59dcQr3s9dTAADiMXAAU3P0n9J5RgEAAvru7u7OfQMmtVhtut+OH7nqFGi7vpg/c2MAAOJxggM4BH0DSuXZBAAIysABHMIbV51CeTYBAIIycACTW1/Mb1NK71x5CvMuP5sAAARk4AAO5bUrT2E8kwAAgYmMAgezWG2635YfuwMU4Lf1xfzEjQAAiMsJDuCQ/MacUngWAQCCc4IDOCinOCiA0xsAABVwggM4NL8559A8gwAAFXCCAzg4pzg4IKc3AAAq4QQHUIJX7gIH4tkDAKiEExxAERarzXVK6aW7wYTerS/mpy44AEAdnOAASqGDwNQ8cwAAFTFwAEVYX8y7Exw/uRtM5Kf8zAEAUAkDB1CSroewdUcY2VZ7AwCgPgYOoBjri/kHrw0wgdf5WQMAoCIio0BxBEcZkbAoAEClnOAASnTuVRVGsM3PFgAAFTJwAMVZX8xvvarCCF7nZwsAgAp5RQUolldV2COvpgAAVM4JDqBkZ15VYQ+2+VkCAKBiBg6gWPmbLjQTGOrct6YAANTPwAEUbX0xv0opLd0lelrmZwgAgMppcAAh6HHQg+4GAEBDnOAAougaCr+5W+zoN90NAIC2GDiAEHJDQXSUXfweFdXdAABoi4EDCGN9MX/vt/Ls4Dw/KwAANMTAAYSyvph3LY4f3TUe8KOoKABAmwwcQDjri/nblNLf3Dm+8Lf8bAAA0CDfogKEtVhtuh9mf3AHSSn9tL6Yn7sQAADtcoIDCCv/QPuTO9g84wYAAAYOIDYjR/OMGwAA/M7AAYRn5GiWcQMAgD8YOIAqGDmaY9wAAOAzBg6gGvkHXl8hW78fjRsAAHzJwAFUJX9NqJGjXj/6KlgAAO7ja2KBKi1WmxcppeuU0pE7XIVtSul0fTF/3/qFAADgfk5wAFXKPwh3I8ev7nB43T18YdwAAOAxBg6gWuuL+W33W3/x0dB+yic3blu/EAAAPM4rKkATFqvNq5TSf7nbofxtfTF/0/pFAABgNwYOoBm5y3GVUjp214v2W0rpzCspAAA8hVdUgGZ80uX4b3e9WP+ttwEAQB9OcABNWqw2Zymlt75lpRjdt6Scry/mV61fCAAA+nGCA2hS/kH6xGmOInT34MS4AQDAEE5wAM1brDbdN610McvnrV+LiXVf//pqfTG/buq/GgCAURg4ALL8TSuvvbYyuu51lNe+IQUAgH3yigpAln/g9trKuD6+jmLcAABgr5zgALjHYrU5yac5fnB99uKnfGrjtoL/FgAACmTgAHiEoWMwwwYAAJMwcADswNDxZIYNAAAmZeAAeILFavOs++aPlNJ5SunYtfvMbymlt9030qwv5h8K+nMBANAAAwdAT4vV5iwPHd83fg1/7oaN9cX8qoA/CwAAjTJwAAyUX1/5OHY8b+R6/ppPa1x5DQUAgBIYOAD2qPKxw6gBAECxDBwAI8m9jm7sOM3/RGt2dE2N6/zPla4GAAAlM3AATCSf7vg4drwo8IRHd0Lj/cdRwykNAAAiMXAAHNBitenGjpP8z8f/eeyTHt3JjNs8ZHT/vl1fzK89BwAARGbgAChQPu1xkv9k3WmPZ5/8KU+/8Sf+dKz4kE9ldN57zQQAgFoZOAAAAIDw/uQWAgAAANEZOAAAAIDwDBwAAABAeAYOAAAAIDwDBwAAABCegQMAAAAIz8ABAAAAhGfgAAAAAMIzcAAAAADhGTgAAACA8AwcAAAAQHgGDgAAACA8AwcAAAAQnoEDAAAACM/AAQAAAIRn4AAAAADCM3AAAAAA4Rk4AAAAgPD+7BYCAIe0Xc6epZReuAkAv3t/dHnzwaWAp/vu7u7OZQMARrddzroR4zSPGScppZeuOsCj3qWUbrvRI6V0fXR5897lgocZOACA0eRR4zyldJZSOnalAQb5LaV0lVJ6a+yArxk4AIC92y5n3ajxKqX03NUFGMWvKaU3R5c3b11e+D8GDgBgb7bLWfcKylunNQAm053qOD+6vLl2yWmdgQMAGCyHQrth43tXE+Agfs5Dh0ApzfI1sQDAINvl7CxH8IwbAIfTfQbf5s9kaJKBAwDobbucvU4p/SOldOQqAhxc91n8j/zZDM3xigoA0Mt2OeteSfnB1QMo0k9Hlzfnbg0tcYIDAHgy4wZA8X7In9XQDAMHAPAkxg2AMIwcNMXAAQDsbLucvTJuAITyQ/7shuppcAAAO9kuZy9SSv90tQBC+vejy5v3bh01c4IDAPim7XL2LKV05UoBhHWVP8uhWgYOAGAX3VcOHrtSAGEd589yqJZXVACAR3k1BaAqXlWhWk5wAADf8sYVAqiGz3SqZeAAAB60Xc5OU0ovXSGAarzMn+1QHQMHAPAYXy0IUB+f7VRJgwMAuNd2OTtJKf3L1QGo0l+OLm9u3Vpq4gQHAPCQM1cGoFo+46mOgQMAeMi5KwNQLZ/xVMcrKgDAV7bL2bOU0v+4MgBV+7ejy5sPbjG1cIIDALiPwj5A/XzWUxUDBwBwH3/pBaifz3qqYuAAAO7zwlUBqJ7Peqpi4AAA7nPiqgBUz2c9VTFwAAD3OXZVAKrns56qGDgAAACA8AwcAAAAQHgGDgDgM9vlzDvZAI3YLmfP3Gtq8d3d3Z2bCQB8Zruc+QsCQAOOLm++c5+phRMcAAAAQHgGDgAAACA8AwcAcJ9fXRWA6vmspyoGDgDgPreuCkD1fNZTFQMHAHCf964KQPV81lMVAwcAcJ9rVwWgej7rqYqviQUA7rVdzj503yDo6gBUaXt0efPMraUmTnAAAA+5cmUAquUznuoYOACAh/jLL0C9fMZTHa+oAAAP2i5nXWH/2BUCqMpvR5c3J24ptXGCAwB4zBtXB6A6PtupkoEDAHjM2+4ghysEUI1t/myH6hg4AIAHHV3edN+k8soVAqjGq/zZDtXR4AAAvmm7nL1PKT13pQBC+/Xo8uaFW0itnOAAAHZx7ioBhOeznKoZOACAbzq6vOlOcCxdKYCwlvmzHKrlFRUAYGfb5ew6pfTSFQMI5d3R5c2pW0btnOAAAJ7izLeqAISyzZ/dUD0DBwCws1ze9xdlgDjOfGsKrTBwAABPcnR5c63HARDCMn9mQxM0OAACWaw2Jyml7p9nKaUvv+atC4d1v6G5XV/Mb91XxqbHAVA03Q2a82e3HKBci9XmRX4d4PQpP0guVpvuX+9SSt0PoFfri7lqOmPons1uTDtydQGKortBk5zgAChMPqXxKn9X/b5+cOz+ovM2pfTG6Q72abucdePbLy4qQFH+6tUUWmTgACjEYrXpflB8PcGR/+5kx+v1xdxffNiL7XLWPbeXriZAEbruxmu3ghYZOAAOLJ/YeJNS+n7iP8nP3UkRJzrYBz0OgCLobtA036ICcECL1eZVjoNOPW6k/P/m+/xngKHO8qtQAByG7gbNc4ID4AAWq033LShXBf3Gu3tt5Wx9Mfc9+fSmxwFwULobNM8JDoCJ5W9GeV/Ycf6X+TTHl189CzvLf7FeumIAk1saN8AJDoBJ5QHhuuCv1eyOt576WlmG0OMAmJTuBmROcABMJMC4kfKf7dpJDgbS4wCYhu4GfMLAATCBIOPGR0YOBjm6vPngL9wAkzjLn7nQvGTgABjfJ0HRCOPGR92f9Sr/2eHpD5AeB8DYdDfgCwYOgPG9TSkdB7zOx/nPDr0cXd68zt/QA8B+vcufscAnDBwAI1qsNq9SSt8Hvsbf5/8G6EuPA2C/dDfgAb5FBWAkuWHxz0qu77/7ZhX62i5nXd3/FxcQYC/+6tUUuJ8THAAj+KS7UQs9DnrT4wDYG90NeISBA2AcUbsbD9HjYBA9DoDBdDfgGwwcAHtWQXfjIXocDKXHAdCP7gbsQIMDYI8q6248RI+D3vQ4AHrR3YAdOMEBsCcVdjceosdBb3ocAE+muwE7MnAA7E9t3Y2H6HEwiB4HwM50N+AJDBwAe1Bxd+MhehwMpccB8DjdDXgiDQ6AgRrpbjxEj4Pe9DgAHqW7AU/kBAfAAA11Nx6ix0FvehwAD9LdgB4MHADDtNLdeIgeB4PocQB8RXcDejJwAPTUYHfjIXocDKXHAfB/dDdgAA0OgB4a7248RI+D3vQ4AH6nuwEDOMEB8ES6Gw/S46A3PQ4A3Q0YysAB8HStdzceosfBIHocQMN0N2APDBwAT6C78U16HAylxwG0RncD9kSDA2BHuhtPosdBb3ocQGN0N2BPnOAA2IHuxpPpcdCbHgfQEN0N2CMDB8BudDeeRo+DQfQ4gAbobsCeGTgAvkF3ozc9DobS4wBqpbsBI9DgAHiE7sZe6HHQmx4HUCndDRiBExwAD9Dd2Bs9DnrT4wAqpLsBIzFwADxMd2M/9DgYRI8DqIjuBozIwAFwD92NvdPjYCg9DiA63Q0YmQYHwBd0N0alx0FvehxAcLobMDInOAA+obsxOj0OetPjAALT3YAJGDgAPqe7MS49DgbR4wAC0t2AiRg4ADLdjcnocTCUHgcQhe4GTEiDA0B341D0OOhNjwMIQncDJuQEB9A83Y2D0eOgNz0OIADdDZiYgQNAd+NQ9DgYRI8DKJjuBhyAgQNomu7GwelxMJQeB1Aa3Q04EA0OoFm6G0XR46A3PQ6gMLobcCBOcABN0t0ojh4HvelxAAXR3YADMnAArdLdKIseB4PocQAF0N2AAzNwAM3R3SiWHgdD6XEAh6K7AQXQ4ACaorsRgh4HvelxAAeiuwEFcIIDaIbuRhh6HPSmxwEcgO4GFMLAAbREdyMGPQ4G0eMAJqS7AQUxcABN0N0IR4+DofQ4gLHpbkBhNDiA6uluhKbHQW96HMDIdDegME5wAFXT3QhPj4Pe9DiAEeluQIEMHEDtdDdi0+NgED0OYAS6G1AoAwdQLd2NauhxMJQeB7AvuhtQMA0OoEq6G1XS46A3PQ5gT3Q3oGBOcADV0d2olh4HvelxAHuguwGFM3AANdLdqJMeB4PocQAD6G5AAAYOoCq6G9XT42AoPQ7gqXQ3IAgNDqAauhtN0eOgNz0O4Il0NyAIJziAKuhuNEePg970OIAn0N2AQAwcQC10N9qix8EgehzADnQ3IBgDBxCe7kaz9DgYSo8DeIjuBgSkwQGEpruBHgdD6HEAD9DdgICc4ADC0t0g0+OgNz0O4B66GxCUgQOITHeDpMfBUHocwCd0NyAwAwcQku4GX9DjYCg9DkB3A4LT4ADC0d3gEXoc9KbHAc3T3YDgnOAAQtHd4Bv0OOhNjwOaprsBFTBwANHobvAYPQ4G0eOAJuluQCUMHEAYuhvsSI+DofQ4oB26G1ARDQ4gBN0NetDjoDc9DmiG7gZUxAkOoHi6G/Skx0FvehzQBN0NqIyBA4hAd4M+9DgYRI8Dqqa7ARUycABF091gID0OhtLjgProbkClNDiAYulusEd6HPSmxwHV0d2ASjnBARRJd4M90+OgNz0OqIruBlTMwAGUSneDfdLjYBA9DqiC7gZUzsABFEd3g5HocTCUHgfEpbsBDdDgAIqiu8EE9DjoTY8DwtLdgAY4wQEUQ3eDiehx0JseB4SkuwGNMHAAJdHdYAp6HAyixwGh6G5AQwwcQBF0N5iYHgdD6XFA+XQ3oDEaHMDB6W5wQHoc9KbHAcXT3YDGOMEBHJTuBgemx0FvehxQNN0NaJCBAzg03Q0OSY+DQfQ4oEi6G9AoAwdwMLobFEKPg6H0OKAcuhvQMA0O4CB0NyiQHge96XFAMXQ3oGFOcACT092gUHoc9KbHAUXQ3YDGGTiAQ9DdoER6HAyixwEHpbsBGDiAaeluUDg9DobS44Dp6W4Av9PgACaju0Egehz0pscBk9PdAH7nBAcwCd0NgtHjoDc9DpiU7gbwBwMHMBXdDSLR42AQPQ6YhO4G8BkDBzA63Q2C0uNgKD0OGI/uBvAVDQ5gVLobVECPg970OGA0uhvAV5zgAEaju0El9DjoTY8DRqG7AdzLwAGMSXeDGuhxMIgeB+yV7gbwIAMHMArdDSqjx8FQehwwnO4G8CgNDmDvdDeomB4HvelxwGC6G8CjnOAA9kp3g8rpcdCbHgcMorsBfJOBA9g33Q1qpsfBIHoc0IvuBrATAwewN7obNEKPg6H0OGB3uhvAzjQ4gL3Q3aBBehz0pscBO9PdAHbmBAcwmO4GjdLjoDc9DtiJ7gbwJAYOYB90N2iRHgeD6HHAo3Q3gCczcACD6G7QOD0OhtLjgK/pbgC9aHAAveluwB/0OOhNjwO+orsB9OIEB9CL7gZ8Ro+D3vQ44DO6G0BvBg6gL90N+H96HAyixwG/090ABjFwAE+muwH30uNgKD0OWqa7AQymwQE8ie4GfJMeB73pcdAw3Q1gMCc4gJ3pbsBO9DjoTY+DRuluAHth4ACeQncDvk2Pg0H0OGiM7gawNwYOYCe6G/AkehwMpcdBC3Q3gL3S4AC+SXcDetPjoDc9Dhqgu8PzsGcAAB21SURBVAHslRMcwKN0N2AQPQ560+OgcrobwN4ZOIBv0d2A/vQ4GESPg0rpbgCjMHAAD9LdgL3Q42AoPQ5qorsBjEaDA7iX7gbsnR4HvelxUBHdDWA0TnAAX9HdgFHocdCbHgeV0N0ARmXgAO6juwH7p8fBIHocBKe7AYzOwAF8RncDRqXHwVB6HESkuwFMQoMD+IPuBkxGj4Pe9DgISHcDmIQTHMDvdDdgUnoc9KbHQTC6G8BkDBzAR7obMB09DgbR4yAI3Q1gUgYOQHcDDkOPg6H0OCiZ7gYwOQ0OaJzuBhycHge96XFQMN0NYHJOcEDDdDegCHoc9KbHQaF0N4CDMHBA23Q34PD0OBhEj4PC6G4AB2PggEbpbkBR9DgYSo+DEuhuAAelwQEN0t2AYulx0JseBwXQ3QAOygkOaIzuBhRNj4Pe9Dg4MN0N4OAMHNAe3Q0olx4Hg+hxcCC6G0ARDBzQEN0NCEGPg6H0OJiS7gZQDA0OaITuBoSjx0FvehxMSHcDKIYTHNAA3Q0ISY+D3vQ4mIjuBlAUAwe0QXcD4tHjYBA9DkamuwEUx8ABldPdgND0OBhKj4Mx6G4ARdLggIrpbkA19DjoTY+DEehuAEVyggMqpbsBVdHjoDc9DvZMdwMoloED6qW7AfXQ42AQPQ72RHcDKJqBAyqkuwFV0uNgKD0OhtDdAIqnwQGV0d2A6ulx0JseBwPobgDFc4IDKqK7AU3Q46A3PQ560t0AQjBwQF10N6B+ehwMosfBE+luAGEYOKASuhvQFD0OhtLjYBe6G0AoGhxQAd0NaJYeB73pcbAD3Q0gFCc4IDjdDWiaHge96XHwDbobQDgGDohPdwPapcfBIHocPEB3AwjJwAGB6W4AehzsgR4Hn9LdAMLS4ICgdDeAL+hx0JseB5/Q3QDCcoIDAtLdAO6hx0FvehxkuhtAaAYOiEl3A/iSHgeD6HE0T3cDCM/AAcHobgCP0ONgKD2ONuluAFXQ4IBAdDeAHelx0JseR5N0N4AqOMEBQehuAE+gx0FvehzN0d0AqmHggDh0N4Bd6XEwiB5HM3Q3gKoYOCAA3Q2gBz0OhtLjqJvuBlAdDQ4onO4GMJAeB73pcVRNdwOojhMcUDDdDWAP9DjoTY+jWrobQJUMHFA23Q1gKD0OBtHjqI7uBlAtAwcUSncD2CM9DobS46iD7gZQNQ0OKJDuBjASPQ560+Oogu4GUDUnOKAwuhvAiPQ46E2PIzzdDaB6Bg4oj+4GMBY9DgbR4whLdwNogoEDCqK7AUxAj4Oh9Dhi0d0AmqHBAYXQ3QAmpsdBb3ocoehuAM1wggMKoLsBHIAeB73pcYShuwE0xcABZdDdAKamx8EgehzF090AmmPggAPT3QAOSI+DofQ4yqS7ATRJgwMOSHcDKIQeB73pcRRJdwNokhMccCC6G0BB9DjoTY+jOLobQLMMHHA4uhtAKfQ4GESPoxi6G0DTDBxwALobQIH0OBhKj+OwdDeA5mlwwMR0N4DC6XHQmx7HQeluAM1zggMmpLsBBKDHQW96HAejuwE0Lxk4YHK6G0Dp9DgYRI9jcrobAJmBAyaiuwEEosfBUHoc09DdAPiEBgdMQHcDCEqPg970OCahuwHwCSc4YGS6G0Bgehz0pscxOt0NgC8YOGB8uhtAVHocDKLHMRrdDYB7GDhgRLobQAX0OBhKj2O/dDcAHqDBASPR3QAqo8dBb3oce6W7AfAAJzhgBLobQIX0OOhNj2NvdDcAHmHggHHobgC10eNgED2OwXQ3AL7BwAF7prsBVEyPg6H0OPrR3QDYgQYH7JHuBtAIPQ560+PoRXcDYAdOcMCe6G4ADdHjoDc9jifT3QDYkYED9kd3A2iFHgeD6HHsTHcD4AkMHLAHuhtAg/Q4GEqP43G6GwBPpMEBA+luAI3T46A3PY5H6W4APJETHDCA7gaAHgf96XE8SHcDoAcDBwyjuwG0To+DQfQ4vqK7AdCTgQN60t0A+IMeB0Ppcfwf3Q2AATQ4oAfdDYB76XHQmx7H73Q3AAZwggOeSHcD4EF6HPSmx6G7ATCUgQOeTncD4H56HAzScI9DdwNgDwwc8AS6GwDfpMfBUK31OHQ3APZEgwN2pLsB8CR6HPTWWI9DdwNgT5zggB3obgA8mR4HvTXU49DdANgjAwfsRncD4Gn0OBikgR6H7gbAnhk44Bt0NwB60+NgqFp7HLobACPQ4IBH6G4A7IUeB71V2uPQ3QAYgRMc8ADdDYC90eOgtwp7HLobACMxcMDDdDcA9kOPg0Eq6nHobgCMyMAB99DdANg7PQ6Git7j0N0AGJkGB3xBdwNgVHoc9Ba8x6G7ATAyJzjgE7obAKPT46C3PBD8GPAK/mjcABifgQM+p7sBMC49DgY5urzpnp+fAl3Fn/KfGYCRGTgg090AmIweB4McXd6cBxk5fsp/VgAmoMEBuhsAh6LHwSDb5exNSuk/C72KS9+YAjAtAwfNy++Cv/dqCsDkfkspvVhfzD+49PS1Xc66ExLd0HFUyEXsvi3llddSAKbnFRXQ3QA4FD0OBstDQvftKr8WcDW7P8OpcQPgMJzgoGn5HfD/av06ABzY39YX8zduAkNtl7PulZBXBzjN0Z3aeOOVFIDDMnDQLN0NgKLocbAX2+XsJKXUDQ0/THRFu9jp66PLm1t3EOCwDBw0SXcDoDh6HOxVHjq60xznI5zo2ObXq94YNgDK8Wf3gkbpbgCU5WOP48x9YR/y8NANHK+2y9lZfrZOB/z//90Id51Sujq6vLlykwDK4wQHzdHdACiaHgejyic7Xnzyz7MH/t/7kE97/v6PkxoA5TNw0BTdDYAQ9DgAgCfzNbE0I3c3HCkFKN9V/swGANiZgYOW6G4AxPCxxwEAsDMDB03I3Y3v3W2AML7Pn90AADvR4KB6uhsAoelxAAA7cYKDquluAISnxwEA7MTAQe1e624AhHacP8sBAB7lFRWq5dUUgKp4VQUAeJQTHNTsjbsLUA2f6QDAowwcVGmx2pymlF66uwDVeJk/2wEA7mXgoFbe1waoj892AOBBGhxUZ7HanKSU/uXOAlTpL+uL+a1bCwB8yQkOavTKXQWo1rlbCwDcx8BBjc7cVYBqGTgAgHsZOKhKfj3l2F0FqNZx/qwHAPiMgYPaKOwD1M9nPQDwFQMHtfGXXoD6vXCPAYAvGTiojWPLAPUzcAAAXzFwUBt/6QWon896AOArBg5qc+SOAlTPZz0A8BUDBwAAABCegYNqLFabZ+4mAABAmwwcAAAAQHgGDqqxvph/cDcBAADaZOAAAAAAwjNwAAAAAOEZOKjNO3cUoHo+6wGArxg4qM2tOwpQPZ/1AMBXDBzU5r07ClA9n/UAwFcMHNTm2h0FqJ7PegDgK9/d3d25KlRlsdp0Xxd75K4CVGm7vpg/c2sBgC85wUGNrtxVgGr5jAcA7mXgoEZv3VWAavmMBwDu5RUVqrRYbbrC/rG7C1CV39YX8xO3FAC4jxMc1Oq1OwtQHZ/tAMCDnOCgWk5xAFTF6Q0A4FFOcFAzv+kDqIfPdADgUU5wULXFavM+pfTcXQYI7df1xfyFWwgAPMYJDmp37g4DhOezHAD4JgMHVVtfzLsTHEt3GSCsZf4sBwB4lFdUaMJitblOKb10twFCebe+mJ+6ZQDALpzgoBVn3Tvc7jZAGL/mz24AgJ04wUEzFqtN9/WC3THnI3cdoGjblNKL9cX81m0CAHblBAfNyH9RPs1/cQagTN1n9KlxAwB4KgMHTcmhuhOvqwAUqftsPhEVBQD6MHDQnPXF/EM+yfGzuw9QjJ/zyY0PbgkA0IcGB01brDavUkqvdTkADqZ7JeX1+mL+xi0AAIYwcNC8HB/t/mL9fevXAmBi3amNV3obAMA+GDggW6w2p/k0x0vXBGBU7/KpjWuXGQDYFwMHfGGx2rzofqOYUjrz6grA3nSvolx1J+ZERAGAMRg44BGL1eYsB0m7f567VgBP0n0rSndK43p9Mb9y6QCAMRk44AnyaywpDx4AfO331068fgIATM3AAQAAAIT3J7cQAAAAiM7AAQAAAIRn4AAAAADCM3AAAAAA4Rk4AAAAgPAMHAAAAEB4Bg4AAAAgPAMHAAAAEJ6BAwAAAAjPwAEAAACEZ+AAAAAAwjNwAAAAAOEZOAAAAIDwDBwAAABAeAYOAAAAIDwDBwAAABCegQMAAAAIz8ABAAAAhPdntxAAgBptl7NnKaUX+T+t+/ezT/4zv/xff+l9SunDJ/971/nft0eXN7ceGIDyfHd3d+e2AAAQ1nY5e5EHi5OU0mkeLp6P/N+zzSNI98/tx//56PLmww7/dwEYgYEDAIAwtsvZSR4zTvO/Xxb2Z/8tjx3diY/ro8ub9wX8mQCaYOAAAKBo2+XsLA8a3b+Pg92t7cexI6V05fUWgPEYOAAAKEpuZ5zlf76v7O50JzyuUkpvne4A2C8DBwAAB1f5qPGQj2PHGyc7AIYzcAAAcDDb5ax79eQ8DxtHDd+JX7uhI7/GIlQK0IOBAwCAyW2Xs27UeDXBt51Es82nOl471QHwNAYOAAAmkV9DeZX/afm0xq5+zq+vXMf44wIcloEDAIBRGTYGe5dPdBg6AB5h4AAAYBSGjb0zdAA8wsABAMDebZez14aN0XRDx7lGB8DnDBwAAOzNdjk7y98Gcuyqju6/84kO37oCNC8ZOAAA2IftcnaSUnqbUnrpgk6q+9aVV0eXN28b+m8GuJeBAwCAQbyOUgSvrQDNM3AAANDLdjl7kU9tPHcFi7DNr6y8af1CAG0ycAAA8GTb5aw7sfFfrlyRnOYAmmTgAABgZ/mrX6+0Noq3zSPHVesXAmjHn9xrAAB2sV3OTlNKt8aNELoeyj+2y5n4KNAMJzgAAPimHBK9dKVC+jWldOaVFaB2Bg4AAB6UX0npTgF87yqFts0jx3XrFwKol1dUAAC413Y5O0kpXRs3qtC9svLLdjk7b/1CAPUycAAA8JX8FbDvfQVsdf6+Xc58jSxQJQMHAACfyTHR6/xbf+rzn+KjQI00OAAA+EN+heHvrkgTfs5fJfuh9QsB1MHAAQDA74wbTeq+YeXUyAHUwCsqAAAYN9rVNVau87flAIRm4AAAaJxxo3lGDqAKBg4AgIYZN8iMHEB4Bg4AgEZtl7Mz4waf6EYOXyELhCUyCgDQoO1y9sJXwfKAn44ub85dHCAaJzgAABqzXc5OjBs84oftcvbaBQKicYIDAKAhubFwnV9HgMf8eHR589YVAqJwggMAoC1Xxg129Ca/ygQQgoEDAKAR2+WsC0i+dL/ZUfcK05VvVgGiMHAAADQgf2PKf7rXPNFxPvUDUDwDBwBA5XJUVEuBvl6KjgIRGDgAAOp35RtTGOhyu5yduohAyQwcAAAVy795FxVlH97qcQAlM3AAAFQq/8b90v1lT4696gSU7Lu7uzs3CACgMvk37e/zD6WwT/9xdHkjPAoUxwkOAIA6vTZuMBKvqgBFMnAAAFRmu5y98JWwjKgL1r5xgYHSGDgAAOqjk8DYfvCtKkBpDBwAABXZLmfnvjWFiTjFARTFwAEAUIncRfBDJ1N5vl3OXrnaQCkMHAAA9XiV+wgwldeCo0ApDBwAABXYLmcnKaVL95KJHeVhDeDgDBwAAHV47T5yIK/ywAZwUAYOAIDg8g+XP7iPHMiRgQ0ogYEDACA+P1xyaD84xQEcmoEDACAwpzcoiKENOCgDBwBAbH6opBRnvlEFOCQDBwBAUPmHSac3KIVvVAEOysABABCXHyYpjWcSOBgDBwBAXH6YpDRH2+Xs3F0BDsHAAQAQUP4h8si9o0CGN+AgDBwAADH5LTmler5dzl64O8DUDBwAAMHkr4Z96b5RMAMcMDkDBwBAPH54pHSeUWByBg4AgHj88EjputjombsETMnAAQAQSG4bHLtnBGDgACZl4AAAiMXpDaIwcACTMnAAAMTih0ai8JoKMCkDBwBAEPnbU7yeQiQGDmAyBg4AgDj8sEg0p+4YMBUDBwBAHAYOojnOYVyA0Rk4AADieOleEZBTHMAkDBwAAAFslzM/JBKVZxeYhIEDACAGPyQSlWcXmISBAwAgBj8kEtX/tneHt3EbeRyGJ9cA3UFcwAJ2KrBTwTkVRK7glArWW8EpHcgdWB3IHUjAFuDtQKxABx7GQXzJWWtL5M5v+DyACtAMv/Dd/wwH93AASxA4AAAyeEEkmecXmJ3AAQDQuPrr92CfCCZwALMTOAAA2vfcHhFO4ABmJ3AAALTPyyHpfOIYmJ3AAQDQPheMEm/cbUwiAbMSOAAA2ufFkB54joFZCRwAAO370R7RAZNIwKwEDgCAhtUvqAAADxA4AADa9sz+0AkTHMCsBA4AgLa5twAAjiBwAAC0TeCgFz4VC8xK4AAAAADiCRwAAG1zbwEAHEHgAAAAFjHuNoIdMBuBAwAAAIgncAAAAADxBA4AgLY9sz8A8DCBAwCgbS/sDwA8TOAAAAAA4gkcAAAAQDyBAwAAAIgncAAAAADxBA4AgLZ9tD8A8DCBAwAAAIgncAAAAADxBA4AAGApd1YamIvAAQDQNi+EdGPY7m/sJjAXgQMAoG1eCAHgCAIHAACwhNEqA3MSOAAA2vbJ/tAJ00jArAQOAIC2CRwAcASBAwCgbQIHvbi2k8CcBA4AgIYN273AQS98EQiYlcABANC+W3tEB9zBAcxK4AAAaJ8pDnrgOQZmJXAAALTPL9+kGx23AuYmcAAAtE/gIJ1nGJidwAEA0D4vh6TzBRVgdgIHAEDj6mj/aJ8IJtIBsxM4AAAy+AWcZAIHMDuBAwAgg8BBqoMLRoElCBwAABkEDlJ5doFFCBwAAAGG7f7GPRyEEjiARQgcAAA5vCiSyHMLLELgAADI8cFeEebW/RvAUgQOAIAcfgknjWcWWIzAAQAQov4Sfmu/CHJps4ClCBwAAFm8MJLiUC/HBViEwAEAkMU9HKTwrAKLEjgAAII4pkIQ00bAogQOAIA8XhxpneMpwOIEDgCAPAIHrfOMAosTOAAAwgzb/V0p5cq+0TCBA1icwAEAkMkLJK26qnfFACxK4AAACDRs99MXKg72jgaJb8BJCBwAALku7B2NOdT4BrA4gQMAINf0S/lo/2jIO5sBnIrAAQAQql42aoqDVkyxzfQGcDICBwBANoGDVlzU6AZwEgIHAECw+kL53h5yYqPYBpyawAEAkM+9B5ya6Q3g5AQOAIBww3b/qZSys4+ciOkNoAkCBwBAHy58UYUTMb0BNEHgAADogC+qcCKHYbt3RApogsABANCJ+qJ5sJ8s6NxiA60QOAAA+uKFk6V8HLb7D1YbaIXAAQDQkfrC+dGesoAziwy0ROAAAOjPmQtHmdmufr0HoBk/3N/f2w0AgM6Mu810VOXf9pUZTBeLPrewQGtMcAAAdGjY7i8cVWEmjqYATRI4AAD65agKT206mnJtVYEWOaICANAxR1V4QrfDdv/SggKtMsEBANCxelTlyh7zSKOjKUDrBA4AgP5NL6YH+8wjnA/b/Y0FBFomcAAAdG7Y7u9KKW/sM9/p/bDdX1o8oHUCBwDACtRf39/aa77R7TS9YdGABC4ZBQBYkXG3mX6J/9Wec4Tp3o2Xw3b/yWIBCQQOAICVGXeb6TOfr+w7D/jJvRtAEkdUAADW5009egD/z1txA0gjcAAArMyfLh0d7T1/4zeXigKJBA4AgBWq9yq8Fjn4H9MXUy4sCpBI4AAAWKl6BEHk4LMpbpxZDSCVwAEAsGIiB5W4AcQTOAAAVk7kWD1xA+iCwAEAgMixXuIG0A2BAwCA/xI5VkfcALoicAAA8AeRYzV+EzeA3vxwf39vUwEA+MK42zwrpVyXUl5Yme68Hbb7y7UvAtAfExwAAPzFsN3f1UmOK6vTjWkq52dxA+iVCQ4AAL5q3G0uSin/skrRbkspZ/UIEkCXTHAAAPBVw3Z/Xkr5xb0csd5P0zjiBtA7ExwAABxl3G1ellIu3csRZbpM9GLtiwCsgwkOAACO8qcvrPxuxZp3KKX8JG4Aa2KCAwCAbzbuNm/qNMdg9ZozBah39aJYgNUQOAAA+C71U7JT5PinFWzCoV4ker32hQDWSeAAAOBR6jTHdBTiRyt5MqY2gNUTOAAAeLQ6zfHO52QXN33+9dzUBoDAAQDAE6pfWpmmOV5Z11mNdWLDJaIAlcABAMCTG3eb1/V+DsdWnt5uikiOowB8SeAAAGA2425zVo+uCB2P975ObXxK/0cA5iBwAAAwO6HjUYQNgCMIHAAALKaGjvNSygur/lVjvcvkUtgAOI7AAQDA4uodHVPs+NXqf+FQJ10+uGMD4NsIHAAAnEz9vOznqY61Hl+ZpjU+1GkNn3sF+E4CBwAATaifmJ1ix5uVxI6rGjZMawA8AYEDAIDmdBo7pkmNa1EDYB4CBwAATRt3m+c1dLyuf0PQjt1+jhqOnwDMS+AAACBKne6YQsfL+tfKF1mmCY2bGjSmvxtTGgDLETgAAIhXv8ryvP5N0WO6vPTVTP/XNJVxV2PGnZgB0AaBAwCArtWJj2f1f/wcQY71x7ESR0wA2iZwAAAAAPH+YQsBAACAdAIHAAAAEE/gAAAAAOIJHAAAAEA8gQMAAACIJ3AAAAAA8QQOAAAAIJ7AAQAAAMQTOAAAAIB4AgcAAAAQT+AAAAAA4gkcAAAAQDyBAwAAAIgncAAAAADxBA4AAAAgnsABAAAAxBM4AAAAgHgCBwAAABBP4AAAAADiCRwAAABAPIEDAAAAiCdwAAAAAPEEDgAAACCewAEAAADEEzgAAACAeAIHAAAAEE/gAAAAAOIJHAAAAEA8gQMAAACIJ3AAAAAA8QQOAAAAIJ7AAQAAAMQTOAAAAIB4AgcAAAAQT+AAAAAA4gkcAAAAQDyBAwAAAIgncAAAAADxBA4AAAAgnsABAAAAxBM4AAAAgHgCBwAAABBP4AAAAADiCRwAAABAPIEDAAAAiCdwAAAAAPEEDgAAACCewAEAAADEEzgAAACAeAIHAAAAEE/gAAAAAOIJHAAAAEA8gQMAAACIJ3AAAAAA8QQOAAAAIJ7AAQAAAMQTOAAAAIB4AgcAAAAQT+AAAAAA4gkcAAAAQDyBAwAAAIgncAAAAADxBA4AAAAgnsABAAAAxBM4AAAAgHgCBwAAABBP4AAAAADiCRwAAABAPIEDAAAAiCdwAAAAAPEEDgAAACCewAEAAADEEzgAAACAeAIHAAAAEE/gAAAAAOIJHAAAAEA8gQMAAACIJ3AAAAAA8QQOAAAAIJ7AAQAAAMQTOAAAAIB4AgcAAAAQT+AAAAAA4gkcAAAAQDyBAwAAAIgncAAAAADxBA4AAAAgnsABAAAAxBM4AAAAgHgCBwAAABBP4AAAAADiCRwAAABAPIEDAAAAiCdwAAAAAPEEDgAAACCewAEAAADEEzgAAACAeAIHAAAAEE/gAAAAAOIJHAAAAEA8gQMAAACIJ3AAAAAA8QQOAAAAIJ7AAQAAAMQTOAAAAIB4AgcAAAAQT+AAAAAA4gkcAAAAQDyBAwAAAIgncAAAAADxBA4AAAAgnsABAAAAxBM4AAAAgHgCBwAAABBP4AAAAADiCRwAAABAPIEDAAAAiCdwAAAAAPEEDgAAACCewAEAAADEEzgAAACAeAIHAAAAEE/gAAAAAOIJHAAAAEA8gQMAAACIJ3AAAAAA8QQOAAAAIJ7AAQAAAMQTOAAAAIB4AgcAAAAQT+AAAAAA4gkcAAAAQDyBAwAAAIgncAAAAADxBA4AAAAgnsABAAAAxBM4AAAAgHgCBwAAABBP4AAAAADiCRwAAABAPIEDAAAAiCdwAAAAAPEEDgAAACCewAEAAADEEzgAAACAeAIHAAAAEE/gAAAAAOIJHAAAAEA8gQMAAACIJ3AAAAAA8QQOAAAAIJ7AAQAAAMQTOAAAAIB4AgcAAAAQT+AAAAAA4gkcAAAAQDyBAwAAAIgncAAAAADxBA4AAAAgnsABAAAAxBM4AAAAgHgCBwAAABBP4AAAAADiCRwAAABAPIEDAAAAiCdwAAAAAPEEDgAAACCewAEAAADEEzgAAACAeAIHAAAAEE/gAAAAAOIJHAAAAEA8gQMAAACIJ3AAAAAA8QQOAAAAIJ7AAQAAAGQrpfwHPDyAw/C1/u8AAAAASUVORK5CYII=;" parent="1" vertex="1">
          <mxGeometry x="383" y="750" width="25.21" height="25.21" as="geometry" />
        </mxCell>
        <mxCell id="fvJor1zX5kDTSRlEVZyJ-8" value="" style="endArrow=classic;html=1;dashed=1;" parent="1" edge="1">
          <mxGeometry width="50" height="50" relative="1" as="geometry">
            <mxPoint x="410" y="770" as="sourcePoint" />
            <mxPoint x="588" y="680" as="targetPoint" />
            <Array as="points">
              <mxPoint x="588" y="770" />
            </Array>
          </mxGeometry>
        </mxCell>
        <mxCell id="fvJor1zX5kDTSRlEVZyJ-14" value="" style="endArrow=classic;html=1;" parent="1" edge="1">
          <mxGeometry width="50" height="50" relative="1" as="geometry">
            <mxPoint x="368" y="650" as="sourcePoint" />
            <mxPoint x="268" y="650" as="targetPoint" />
          </mxGeometry>
        </mxCell>
        <mxCell id="fvJor1zX5kDTSRlEVZyJ-15" value="https://chesscentre.online" style="text;html=1;strokeColor=none;fillColor=none;align=center;verticalAlign=middle;whiteSpace=wrap;rounded=0;rotation=-90;fontColor=#3333FF;fontSize=10;" parent="1" vertex="1">
          <mxGeometry x="362" y="631" width="40" height="20" as="geometry" />
        </mxCell>
        <mxCell id="fvJor1zX5kDTSRlEVZyJ-25" value="" style="edgeStyle=orthogonalEdgeStyle;rounded=0;orthogonalLoop=1;jettySize=auto;html=1;fontColor=#3333FF;" parent="1" edge="1">
          <mxGeometry relative="1" as="geometry">
            <mxPoint x="365.5999999999999" y="160" as="sourcePoint" />
            <mxPoint x="365.48275862068976" y="130" as="targetPoint" />
          </mxGeometry>
        </mxCell>
        <mxCell id="fvJor1zX5kDTSRlEVZyJ-19" value="" style="endArrow=classic;html=1;entryX=0.5;entryY=1;entryDx=0;entryDy=0;" parent="1" edge="1">
          <mxGeometry width="50" height="50" relative="1" as="geometry">
            <mxPoint x="365.11" y="280" as="sourcePoint" />
            <mxPoint x="365.6100000000001" y="220" as="targetPoint" />
          </mxGeometry>
        </mxCell>
        <mxCell id="fvJor1zX5kDTSRlEVZyJ-21" value="/api/&lt;br style=&quot;font-size: 10px;&quot;&gt;&lt;blockquote style=&quot;margin: 0px 0px 0px 40px; border: none; padding: 0px; font-size: 10px;&quot;&gt;&lt;div style=&quot;text-align: left; font-size: 10px;&quot;&gt;&lt;span style=&quot;font-size: 10px;&quot;&gt;/events&lt;/span&gt;&lt;/div&gt;&lt;div style=&quot;text-align: left; font-size: 10px;&quot;&gt;&lt;span style=&quot;font-size: 10px;&quot;&gt;/results&lt;/span&gt;&lt;/div&gt;&lt;div style=&quot;text-align: left; font-size: 10px;&quot;&gt;&lt;span style=&quot;font-size: 10px;&quot;&gt;/user/:id&lt;/span&gt;&lt;/div&gt;&lt;/blockquote&gt;" style="text;html=1;strokeColor=none;fillColor=none;align=center;verticalAlign=middle;whiteSpace=wrap;rounded=0;rotation=0;fontColor=#3333FF;fontSize=10;" parent="1" vertex="1">
          <mxGeometry x="358" y="400" width="83" height="20" as="geometry" />
        </mxCell>
        <mxCell id="fvJor1zX5kDTSRlEVZyJ-26" value="" style="verticalLabelPosition=bottom;html=1;verticalAlign=top;strokeWidth=1;align=center;outlineConnect=0;dashed=0;outlineConnect=0;shape=mxgraph.aws3d.s3Bucket;fillColor=#4286c5;strokeColor=#57A2D8;aspect=fixed;fontColor=#3333FF;" parent="1" vertex="1">
          <mxGeometry x="108" y="330" width="61.5" height="63.800000000000004" as="geometry" />
        </mxCell>
        <mxCell id="fvJor1zX5kDTSRlEVZyJ-29" value="" style="outlineConnect=0;dashed=0;verticalLabelPosition=bottom;verticalAlign=top;align=center;html=1;shape=mxgraph.aws3.lambda_function;fillColor=#F58534;gradientColor=none;strokeColor=#000000;fontColor=#3333FF;" parent="1" vertex="1">
          <mxGeometry x="341" y="166.9" width="49" height="50" as="geometry" />
        </mxCell>
        <mxCell id="fvJor1zX5kDTSRlEVZyJ-30" value="" style="outlineConnect=0;dashed=0;verticalLabelPosition=bottom;verticalAlign=top;align=center;html=1;shape=mxgraph.aws3.api_gateway;fillColor=#D9A741;gradientColor=none;strokeColor=#000000;fontColor=#3333FF;" parent="1" vertex="1">
          <mxGeometry x="327.25" y="290" width="80.75" height="73" as="geometry" />
        </mxCell>
        <mxCell id="fvJor1zX5kDTSRlEVZyJ-31" value="" style="outlineConnect=0;dashed=0;verticalLabelPosition=bottom;verticalAlign=top;align=center;html=1;shape=mxgraph.aws3.cloudfront;fillColor=#F58536;gradientColor=none;strokeColor=#000000;fontColor=#3333FF;" parent="1" vertex="1">
          <mxGeometry x="326.35" y="450" width="82.5" height="73" as="geometry" />
        </mxCell>
        <mxCell id="fvJor1zX5kDTSRlEVZyJ-32" value="AWS CloudFront" style="text;html=1;strokeColor=none;fillColor=none;align=center;verticalAlign=middle;whiteSpace=wrap;rounded=0;" parent="1" vertex="1">
          <mxGeometry x="407.21" y="476.5" width="116" height="20" as="geometry" />
        </mxCell>
        <mxCell id="fvJor1zX5kDTSRlEVZyJ-33" value="AWS API Gateway" style="text;html=1;strokeColor=none;fillColor=none;align=center;verticalAlign=middle;whiteSpace=wrap;rounded=0;" parent="1" vertex="1">
          <mxGeometry x="408.85" y="320" width="116" height="20" as="geometry" />
        </mxCell>
        <mxCell id="fvJor1zX5kDTSRlEVZyJ-34" value="" style="endArrow=classic;html=1;entryX=0.5;entryY=1;entryDx=0;entryDy=0;" parent="1" edge="1">
          <mxGeometry width="50" height="50" relative="1" as="geometry">
            <mxPoint x="367.2600000000001" y="440" as="sourcePoint" />
            <mxPoint x="367.7600000000001" y="380" as="targetPoint" />
          </mxGeometry>
        </mxCell>
        <mxCell id="fvJor1zX5kDTSRlEVZyJ-35" value="AWS Lambda" style="text;html=1;strokeColor=none;fillColor=none;align=center;verticalAlign=middle;whiteSpace=wrap;rounded=0;" parent="1" vertex="1">
          <mxGeometry x="399" y="181.9" width="86" height="20" as="geometry" />
        </mxCell>
        <mxCell id="fvJor1zX5kDTSRlEVZyJ-36" value="" style="outlineConnect=0;dashed=0;verticalLabelPosition=bottom;verticalAlign=top;align=center;html=1;shape=mxgraph.aws3.rds;fillColor=#2E73B8;gradientColor=none;strokeColor=#000000;fontColor=#000000;" parent="1" vertex="1">
          <mxGeometry x="332.3" y="60" width="66.4" height="61" as="geometry" />
        </mxCell>
        <mxCell id="fvJor1zX5kDTSRlEVZyJ-37" value="AWS RDS" style="text;html=1;strokeColor=none;fillColor=none;align=center;verticalAlign=middle;whiteSpace=wrap;rounded=0;" parent="1" vertex="1">
          <mxGeometry x="402" y="70" width="86" height="20" as="geometry" />
        </mxCell>
        <mxCell id="fvJor1zX5kDTSRlEVZyJ-38" value="" style="outlineConnect=0;dashed=0;verticalLabelPosition=bottom;verticalAlign=top;align=center;html=1;shape=mxgraph.aws3.cognito;fillColor=#AD688B;gradientColor=none;strokeColor=#000000;fontColor=#000000;" parent="1" vertex="1">
          <mxGeometry x="548" y="590" width="80" height="83" as="geometry" />
        </mxCell>
        <mxCell id="fvJor1zX5kDTSRlEVZyJ-39" value="AWS Cognito" style="text;html=1;strokeColor=none;fillColor=none;align=center;verticalAlign=middle;whiteSpace=wrap;rounded=0;" parent="1" vertex="1">
          <mxGeometry x="638" y="621.5" width="116" height="20" as="geometry" />
        </mxCell>
        <mxCell id="fvJor1zX5kDTSRlEVZyJ-40" value="" style="outlineConnect=0;dashed=0;verticalLabelPosition=bottom;verticalAlign=top;align=center;html=1;shape=mxgraph.aws3.route_53;fillColor=#F58536;gradientColor=none;strokeColor=#000000;fontColor=#000000;" parent="1" vertex="1">
          <mxGeometry x="188" y="598.25" width="70.5" height="85.5" as="geometry" />
        </mxCell>
        <mxCell id="fvJor1zX5kDTSRlEVZyJ-41" value="AWS Route53" style="text;html=1;strokeColor=none;fillColor=none;align=center;verticalAlign=middle;whiteSpace=wrap;rounded=0;" parent="1" vertex="1">
          <mxGeometry x="236" y="611" width="116" height="20" as="geometry" />
        </mxCell>
        <mxCell id="fvJor1zX5kDTSRlEVZyJ-42" value="bradford.chesscentre&lt;br style=&quot;font-size: 10px;&quot;&gt;london.chesscentre" style="text;html=1;align=left;verticalAlign=middle;resizable=0;points=[];autosize=1;fontColor=#0000FF;fontSize=10;" parent="1" vertex="1">
          <mxGeometry x="252" y="660" width="110" height="30" as="geometry" />
        </mxCell>
        <mxCell id="fvJor1zX5kDTSRlEVZyJ-43" value="AWS S3" style="text;html=1;strokeColor=none;fillColor=none;align=center;verticalAlign=middle;whiteSpace=wrap;rounded=0;" parent="1" vertex="1">
          <mxGeometry x="169.5" y="351.9" width="86" height="20" as="geometry" />
        </mxCell>
        <mxCell id="fvJor1zX5kDTSRlEVZyJ-44" value="/index.html&lt;br style=&quot;font-size: 10px;&quot;&gt;/app.js" style="text;html=1;strokeColor=none;fillColor=none;align=center;verticalAlign=middle;whiteSpace=wrap;rounded=0;rotation=0;fontColor=#3333FF;fontSize=10;" parent="1" vertex="1">
          <mxGeometry x="166" y="496.5" width="40" height="20" as="geometry" />
        </mxCell>
        <mxCell id="fvJor1zX5kDTSRlEVZyJ-45" value="" style="endArrow=oval;html=1;endFill=1;" parent="1" edge="1">
          <mxGeometry width="50" height="50" relative="1" as="geometry">
            <mxPoint x="312.0000000000002" y="490.0000000000001" as="sourcePoint" />
            <mxPoint x="138" y="490" as="targetPoint" />
          </mxGeometry>
        </mxCell>
        <mxCell id="fvJor1zX5kDTSRlEVZyJ-46" value="" style="endArrow=classic;html=1;entryX=0.5;entryY=1;entryDx=0;entryDy=0;" parent="1" edge="1">
          <mxGeometry width="50" height="50" relative="1" as="geometry">
            <mxPoint x="139" y="490" as="sourcePoint" />
            <mxPoint x="138.91000000000022" y="400.0000000000001" as="targetPoint" />
          </mxGeometry>
        </mxCell>
        <mxCell id="fvJor1zX5kDTSRlEVZyJ-47" value="create-react-app" style="text;html=1;strokeColor=none;fillColor=none;align=center;verticalAlign=middle;whiteSpace=wrap;rounded=0;rotation=-90;fontColor=#3333FF;fontSize=10;" parent="1" vertex="1">
          <mxGeometry x="68" y="435" width="106.5" height="23.75" as="geometry" />
        </mxCell>
        <mxCell id="fvJor1zX5kDTSRlEVZyJ-48" value="" style="shape=image;html=1;verticalAlign=top;verticalLabelPosition=bottom;labelBackgroundColor=#ffffff;imageAspect=0;aspect=fixed;image=https://cdn4.iconfinder.com/data/icons/logos-3/600/React.js_logo-128.png;strokeColor=#000000;fillColor=#ffffff;fontSize=10;fontColor=#0000FF;align=left;" parent="1" vertex="1">
          <mxGeometry x="80" y="432.88" width="28" height="28" as="geometry" />
        </mxCell>
        <mxCell id="fvJor1zX5kDTSRlEVZyJ-49" value="authentication" style="text;html=1;align=center;verticalAlign=middle;resizable=0;points=[];autosize=1;fontColor=#0000FF;fontSize=10;" parent="1" vertex="1">
          <mxGeometry x="548" y="768" width="80" height="20" as="geometry" />
        </mxCell>
        <mxCell id="fvJor1zX5kDTSRlEVZyJ-50" value="" style="shape=image;html=1;verticalAlign=top;verticalLabelPosition=bottom;labelBackgroundColor=#ffffff;imageAspect=0;aspect=fixed;image=https://cdn3.iconfinder.com/data/icons/capsocial-round/500/facebook-128.png;strokeColor=#000000;fillColor=#ffffff;fontSize=10;fontColor=#0000FF;align=center;" parent="1" vertex="1">
          <mxGeometry x="599" y="732" width="20" height="20" as="geometry" />
        </mxCell>
        <mxCell id="fvJor1zX5kDTSRlEVZyJ-52" value="" style="shape=image;html=1;verticalAlign=top;verticalLabelPosition=bottom;labelBackgroundColor=#ffffff;imageAspect=0;aspect=fixed;image=https://cdn0.iconfinder.com/data/icons/octicons/1024/mark-github-128.png;strokeColor=#000000;fillColor=#ffffff;fontSize=10;fontColor=#0000FF;align=center;" parent="1" vertex="1">
          <mxGeometry x="599" y="705" width="20" height="20" as="geometry" />
        </mxCell>
        <mxCell id="fvJor1zX5kDTSRlEVZyJ-54" value="" style="shape=image;html=1;verticalAlign=top;verticalLabelPosition=bottom;labelBackgroundColor=#ffffff;imageAspect=0;aspect=fixed;image=https://cdn2.iconfinder.com/data/icons/seo-flat-6/128/04_Business_Strategy-128.png;strokeColor=#000000;fillColor=#ffffff;fontSize=10;fontColor=#0000FF;align=center;" parent="1" vertex="1">
          <mxGeometry x="327.25" y="753" width="12" height="12" as="geometry" />
        </mxCell>
        <mxCell id="fvJor1zX5kDTSRlEVZyJ-55" value="" style="outlineConnect=0;dashed=0;verticalLabelPosition=bottom;verticalAlign=top;align=center;html=1;shape=mxgraph.aws3.lambda_function;fillColor=#F58534;gradientColor=none;strokeColor=#000000;fontColor=#3333FF;" parent="1" vertex="1">
          <mxGeometry x="581" y="166.9" width="49" height="50" as="geometry" />
        </mxCell>
        <mxCell id="fvJor1zX5kDTSRlEVZyJ-56" value="AWS Lambda" style="text;html=1;strokeColor=none;fillColor=none;align=center;verticalAlign=middle;whiteSpace=wrap;rounded=0;" parent="1" vertex="1">
          <mxGeometry x="642" y="181.9" width="86" height="20" as="geometry" />
        </mxCell>
        <mxCell id="fvJor1zX5kDTSRlEVZyJ-58" value="" style="endArrow=classic;html=1;fontSize=10;fontColor=#0000FF;" parent="1" edge="1">
          <mxGeometry width="50" height="50" relative="1" as="geometry">
            <mxPoint x="598" y="160" as="sourcePoint" />
            <mxPoint x="408" y="100" as="targetPoint" />
          </mxGeometry>
        </mxCell>
        <mxCell id="fvJor1zX5kDTSRlEVZyJ-59" value="" style="outlineConnect=0;dashed=0;verticalLabelPosition=bottom;verticalAlign=top;align=center;html=1;shape=mxgraph.aws3.cloudwatch;fillColor=#759C3E;gradientColor=none;strokeColor=#000000;fontSize=10;fontColor=#0000FF;" parent="1" vertex="1">
          <mxGeometry x="570.75" y="288" width="81.25" height="81.9" as="geometry" />
        </mxCell>
        <mxCell id="fvJor1zX5kDTSRlEVZyJ-60" value="AWS CloudWatch" style="text;html=1;strokeColor=none;fillColor=none;align=center;verticalAlign=middle;whiteSpace=wrap;rounded=0;" parent="1" vertex="1">
          <mxGeometry x="642" y="300" width="116" height="20" as="geometry" />
        </mxCell>
        <mxCell id="fvJor1zX5kDTSRlEVZyJ-61" value="" style="endArrow=classic;html=1;entryX=0.5;entryY=1;entryDx=0;entryDy=0;" parent="1" edge="1">
          <mxGeometry width="50" height="50" relative="1" as="geometry">
            <mxPoint x="605.1600000000001" y="280" as="sourcePoint" />
            <mxPoint x="605.6600000000001" y="220" as="targetPoint" />
          </mxGeometry>
        </mxCell>
        <mxCell id="fvJor1zX5kDTSRlEVZyJ-63" value="handler: publishRatingList" style="text;html=1;strokeColor=none;fillColor=none;align=center;verticalAlign=middle;whiteSpace=wrap;rounded=0;rotation=0;fontColor=#3333FF;fontSize=10;" parent="1" vertex="1">
          <mxGeometry x="610" y="230" width="150" height="20" as="geometry" />
        </mxCell>
        <mxCell id="fvJor1zX5kDTSRlEVZyJ-64" value="postgres" style="text;html=1;strokeColor=none;fillColor=none;align=center;verticalAlign=middle;whiteSpace=wrap;rounded=0;rotation=0;fontColor=#3333FF;fontSize=10;" parent="1" vertex="1">
          <mxGeometry x="339.25" y="110" width="150" height="20" as="geometry" />
        </mxCell>
        <mxCell id="fvJor1zX5kDTSRlEVZyJ-65" value="handler: createEvent" style="text;html=1;strokeColor=none;fillColor=none;align=center;verticalAlign=middle;whiteSpace=wrap;rounded=0;rotation=0;fontColor=#3333FF;fontSize=10;" parent="1" vertex="1">
          <mxGeometry x="362" y="230" width="150" height="20" as="geometry" />
        </mxCell>
      </root>
    </mxGraphModel>
  </diagram>
</mxfile>
